<svg width="246" height="239" xmlns="http://www.w3.org/2000/svg" xmlns:xlink="http://www.w3.org/1999/xlink" overflow="hidden"><defs><clipPath id="clip0"><path d="M200 137 446 137 446 376 200 376Z" fill-rule="evenodd" clip-rule="evenodd"/></clipPath><clipPath id="clip1"><path d="M201 137 446 137 446 375 201 375Z" fill-rule="evenodd" clip-rule="evenodd"/></clipPath><clipPath id="clip2"><path d="M201 137 446 137 446 375 201 375Z" fill-rule="evenodd" clip-rule="evenodd"/></clipPath><clipPath id="clip3"><path d="M201 89 1482 89 1482 731 201 731Z" fill-rule="evenodd" clip-rule="evenodd"/></clipPath></defs><g clip-path="url(#clip0)" transform="translate(-200 -137)"><g clip-path="url(#clip1)"><g clip-path="url(#clip2)"><g clip-path="url(#clip3)"><path d="M118.072 589.159C111.173 585.759 106.574 576.962 96.9767 549.368 93.5776 539.471 89.4785 528.473 87.7789 525.074 83.28 515.476 83.48 515.576 48.4884 515.776 18.1956 515.976 11.4972 515.276 5.39871 511.277-0.099976 507.678-1.39966 500.98 2.0995 494.381 5.29873 488.383 11.0973 482.784 26.4936 471.087 56.3865 448.492 58.386 446.293 57.0863 437.895 56.6864 435.396 52.5874 422.399 47.9885 409.002 41.9899 391.206 39.5905 382.708 39.1906 377.909 38.3908 365.712 42.1899 359.914 51.0877 359.914 58.186 359.914 65.5843 363.113 77.6814 371.411 105.575 390.606 112.473 395.005 116.172 396.105 119.871 397.205 120.671 397.105 125.37 394.605 130.169 392.106 133.868 389.407 158.462 370.711 178.757 355.315 191.754 352.715 197.053 363.113 200.852 370.511 199.352 380.709 190.054 410.202 185.056 426.298 182.556 437.295 183.356 440.294 184.256 444.093 191.254 449.992 209.85 462.889 230.445 477.186 237.243 482.784 240.542 488.383 245.841 497.481 242.142 506.279 231.644 509.378 225.246 511.277 206.051 512.777 187.355 512.877 179.557 512.877 170.759 513.277 167.86 513.877 160.262 515.276 157.962 518.276 153.063 533.772 150.864 540.67 146.965 552.967 144.465 560.965 138.967 578.561 134.768 585.759 128.669 588.759 123.47 591.258 122.471 591.258 118.072 589.159Z" transform="matrix(1 0 0 -1.00163 201.375 730.596)"/><path d="M378.409 589.958C375.41 588.659 371.411 584.66 368.712 580.261 365.312 574.762 362.513 567.864 355.715 548.368 352.515 539.071 348.516 528.573 346.917 525.074 342.518 515.576 342.918 515.676 304.927 515.476 270.635 515.376 268.836 515.076 262.937 509.578 258.638 505.479 258.138 501.08 261.337 494.481 264.437 488.083 269.935 482.784 287.031 469.887 306.626 455.091 312.725 449.992 315.024 446.193 317.024 442.994 317.124 442.294 315.924 436.595 315.324 433.196 311.825 422.299 308.326 412.501 297.829 383.308 296.029 373.71 299.528 366.312 301.928 361.413 305.927 359.514 313.125 360.214 320.523 360.913 327.321 364.613 348.916 379.709 366.612 392.106 374.81 396.905 378.309 396.905 381.908 396.905 389.607 391.906 408.902 377.309 430.297 361.113 437.795 356.914 445.393 356.914 453.891 356.914 457.89 361.913 457.89 372.711 457.89 379.809 456.291 386.307 448.792 411.301 445.293 422.899 442.794 433.396 442.594 436.595 442.394 442.094 442.394 442.094 447.993 447.293 450.992 450.092 460.19 456.99 468.488 462.589 487.883 475.986 494.281 480.985 497.881 486.083 502.08 491.882 503.079 496.181 501.28 500.78 497.881 509.378 488.983 511.677 454.891 512.577 425.898 513.277 421.399 514.077 418.3 518.676 415.7 522.575 412.401 531.672 406.902 550.368 399.904 574.162 395.205 584.46 389.507 588.159 386.507 590.158 381.009 591.058 378.409 589.958Z" transform="matrix(1 0 0 -1.00163 201.375 730.596)"/><path d="M637.247 589.459C629.649 586.059 624.55 576.662 614.853 548.368 608.754 530.373 605.055 521.875 602.156 518.676 599.856 516.076 594.257 515.676 562.065 515.476 535.771 515.376 531.872 515.176 528.373 513.577 515.276 507.678 514.976 497.381 527.673 485.084 530.873 481.884 539.471 474.886 546.869 469.287 573.762 449.192 576.562 446.093 575.462 438.495 575.062 436.195 570.963 423.198 566.364 409.402 556.866 381.409 555.567 374.61 558.266 367.412 560.366 361.913 563.765 359.914 570.663 359.914 577.561 359.914 587.259 365.112 607.854 379.509 624.05 390.906 634.248 396.905 637.347 396.905 640.046 396.905 648.045 392.306 656.842 385.707 661.541 382.208 669.939 375.81 675.538 371.511 689.535 360.913 697.433 356.914 704.231 356.914 710.33 356.914 713.829 359.014 715.828 363.913 717.928 369.011 716.528 382.708 712.429 396.405 703.131 427.198 701.832 432.296 701.832 437.395 701.832 442.494 702.032 442.894 707.13 447.493 710.13 450.192 720.127 457.59 729.325 463.889 748.62 476.986 758.818 486.283 760.618 492.382 763.317 501.88 757.418 508.378 743.722 510.877 740.722 511.477 726.326 512.277 711.829 512.777 680.237 513.777 679.037 514.077 675.338 522.075 674.038 524.974 669.939 537.271 666.34 549.368 662.641 561.665 658.142 574.262 656.143 578.161 650.644 588.559 644.046 592.558 637.247 589.459Z" transform="matrix(1 0 0 -1.00163 201.375 730.596)"/><path d="M896.285 589.459C888.687 586.159 884.088 577.861 874.39 549.768 864.493 521.075 862.593 517.476 856.195 516.276 854.395 515.976 838.999 515.576 822.103 515.476 791.41 515.376 791.31 515.376 786.411 512.877 777.713 508.478 775.414 502.579 779.313 494.481 782.112 488.583 789.411 481.884 809.506 466.688 830.101 450.992 834.8 446.393 834.8 441.794 834.8 437.095 832.4 428.697 825.402 409.202 814.805 379.709 813.705 369.811 820.303 363.213 823.203 360.314 824.202 359.914 829.001 359.914 837.399 359.914 845.697 364.413 873.79 384.408 886.787 393.606 894.185 397.205 898.285 396.505 901.984 395.805 909.382 390.806 930.777 374.51 948.572 361.013 956.271 356.914 963.469 356.914 968.868 356.914 972.067 358.614 974.166 362.713 977.965 370.411 976.866 378.609 968.068 407.402 964.369 419.499 961.469 431.297 961.069 435.196L960.47 441.994 965.368 446.693C968.068 449.292 978.165 456.79 987.763 463.389 1012.66 480.485 1020.76 488.783 1020.76 496.981 1020.76 503.379 1013.56 508.878 1002.66 510.877 999.66 511.477 985.264 512.277 970.767 512.777 939.175 513.777 938.275 513.977 934.476 522.075 933.076 525.074 929.677 535.172 926.878 544.469 916.98 578.261 913.181 586.159 905.083 589.459 901.184 591.158 900.084 591.158 896.285 589.459Z" transform="matrix(1 0 0 -1.00163 201.375 730.596)"/><path d="M1155.22 589.459C1147.82 586.259 1143.33 578.061 1133.23 548.868 1123.63 521.275 1121.53 517.476 1114.93 516.276 1113.13 515.876 1097.74 515.576 1080.94 515.476 1053.35 515.376 1049.85 515.176 1045.95 513.477 1037.25 509.678 1034.45 502.28 1038.65 494.081 1041.45 488.683 1052.15 478.885 1069.84 465.588 1078.44 459.19 1087.44 451.792 1089.74 449.292 1093.94 444.693 1094.04 444.593 1093.44 438.895 1093.04 435.695 1089.64 424.198 1085.84 413.301 1077.34 388.707 1077.14 387.907 1075.74 380.009 1073.54 367.312 1078.14 359.914 1088.24 359.914 1095.44 359.914 1105.23 365.012 1125.73 379.309 1142.63 391.206 1152.22 396.905 1155.42 396.905 1158.42 396.905 1165.82 392.706 1175.02 385.707 1200.61 366.312 1205.21 363.013 1210.41 360.414 1213.91 358.614 1218.11 357.414 1221.71 357.114 1226.61 356.714 1227.71 357.014 1230.4 359.314 1232.5 361.113 1233.9 363.513 1234.7 366.812 1236.6 374.71 1235 382.208 1224.31 417.4 1222.21 423.998 1220.31 432.196 1220.01 435.695L1219.41 441.994 1224.31 446.693C1227.11 449.292 1237 456.69 1246.5 463.189 1276.69 483.884 1283.69 492.782 1277.69 502.579 1273.29 509.978 1265.4 511.577 1229.61 512.777 1197.81 513.777 1197.31 513.877 1193.51 522.475 1192.01 525.774 1188.11 537.571 1184.72 548.768 1175.92 577.861 1171.72 586.259 1164.02 589.459 1160.12 591.158 1159.02 591.158 1155.22 589.459Z" transform="matrix(1 0 0 -1.00163 201.375 730.596)"/><path d="M116.572 281.033C110.074 276.734 106.175 268.935 96.5768 240.942 92.7777 230.245 88.5788 219.247 87.1791 216.448 82.8801 208.45 82.6802 208.45 50.6878 208.75 21.3949 209.05 13.1968 208.35 6.89835 204.751 2.79933 202.451 0 198.352 0 194.553 0 186.455 7.29825 178.357 30.9926 160.462 40.5903 153.163 50.4879 145.065 52.9873 142.566 57.0863 138.267 57.3862 137.667 57.1863 132.968 57.0863 130.269 54.9868 122.171 52.3874 114.772 49.888 107.474 45.989 96.077 43.7895 89.4785 36.8912 69.1834 37.591 57.9861 45.989 53.6871 52.7873 50.188 62.7849 53.8871 81.2805 66.684 104.075 82.4802 110.773 86.7792 115.272 88.4788L119.971 90.2783 125.27 87.479C128.269 85.9794 138.267 78.9811 147.565 71.7828 167.26 56.5864 175.458 51.4876 182.656 49.988 187.255 48.9883 188.455 49.0882 191.654 50.6878 201.552 55.4867 201.452 66.1841 190.954 99.976 185.056 118.971 182.556 130.169 183.356 133.468 184.256 136.967 193.054 144.365 210.05 155.963 236.443 173.958 242.942 180.657 242.942 189.754 242.942 193.354 242.342 194.753 239.643 197.453 234.044 203.051 228.645 204.051 200.452 204.951 166.56 206.151 164.261 206.45 160.362 210.35 157.062 213.649 157.162 213.249 144.465 254.139 138.067 274.634 132.068 282.932 123.67 282.932 121.171 282.932 118.272 282.132 116.572 281.033ZM129.969 263.437C131.468 260.138 135.268 248.64 138.467 237.943 144.865 216.148 149.264 205.851 153.763 201.552 158.862 196.853 164.76 195.853 193.953 194.953 230.445 193.854 235.843 192.454 230.445 185.456 227.046 180.857 221.847 176.858 202.751 163.661 184.856 151.264 178.757 146.265 175.258 140.566 171.259 134.268 172.259 125.47 180.257 98.8763 189.355 68.9835 190.654 59.9856 186.055 59.9856 182.156 59.9856 173.058 65.6842 155.463 79.081 145.065 86.8792 133.668 94.8772 130.169 96.6768 118.272 102.875 112.273 101.076 88.0789 84.1798 63.5847 66.9839 56.7864 62.9849 51.9875 62.9849 47.1887 62.9849 49.0882 73.6823 58.6859 100.376 70.983 134.568 70.983 139.866 58.7859 151.564 55.8866 154.363 46.2889 162.161 37.491 168.76 20.4951 181.456 10.5975 190.854 11.1973 193.754 11.8971 197.253 17.8957 197.953 50.7878 198.252 81.4805 198.452 82.5802 198.552 86.6792 200.652 91.0782 203.051 95.5771 208.65 98.4764 215.448 99.3762 217.648 103.075 227.745 106.574 237.943 113.773 258.638 117.772 267.736 120.971 270.935 123.07 273.035 123.17 273.035 125.17 271.235 126.37 270.235 128.469 266.736 129.969 263.437Z" transform="matrix(1 0 0 -1.00163 201.375 730.596)"/><path d="M373.81 279.233C368.312 274.234 364.313 265.836 356.315 242.842 352.715 232.144 348.416 220.847 346.817 217.748 342.018 208.15 343.318 208.45 306.926 208.45 272.135 208.45 269.135 208.05 263.337 202.651 256.638 196.453 258.038 188.655 267.736 178.657 270.335 175.958 280.333 167.86 289.93 160.561 299.528 153.163 309.626 144.865 312.325 142.066 317.024 136.967 317.124 136.767 316.424 132.168 315.724 127.269 312.125 115.972 305.127 95.977 295.729 69.5833 295.729 58.386 304.927 53.6871 312.525 49.7881 322.923 54.287 349.416 72.8825 358.214 79.081 368.212 85.4795 371.611 87.1791 377.909 90.2783 377.909 90.2783 382.208 88.5788 384.608 87.679 395.905 79.8808 407.402 71.1829 428.597 55.2867 433.896 51.9875 442.294 49.888 446.193 48.8883 447.293 48.9883 450.592 50.5879 459.19 54.8868 460.09 66.584 453.391 88.9787 451.292 95.877 448.092 106.674 446.193 112.973 444.293 119.271 442.694 126.87 442.594 129.869 442.394 135.068 442.494 135.268 447.493 139.866 450.292 142.366 460.39 149.864 469.987 156.462 496.581 174.658 504.979 184.356 501.78 192.854 498.38 201.652 488.083 204.951 463.789 204.951 445.093 205.051 425.598 206.55 422.199 208.15 418 210.15 414.701 217.348 408.402 238.343 397.305 275.634 393.006 282.932 382.008 282.932 378.709 282.932 377.11 282.232 373.81 279.233ZM387.707 266.136C389.407 262.937 392.606 254.139 394.905 246.441 407.002 205.551 410.102 199.852 421.999 196.953 424.398 196.353 438.295 195.453 452.891 194.953 486.183 193.953 493.882 192.354 490.982 187.255 488.883 183.356 480.685 176.558 463.889 165.06 442.694 150.364 436.195 144.865 433.796 139.567 430.297 131.968 431.496 124.27 440.794 94.2774 448.292 70.0832 449.592 59.9856 444.993 59.9856 441.094 59.9856 430.597 66.584 413.901 79.4809 404.303 86.9791 393.206 94.6773 389.207 96.6768 376.61 102.875 371.611 101.276 343.518 81.4805 318.824 64.1846 309.126 59.6857 308.826 65.2843 308.426 71.2829 309.726 76.3817 317.624 99.976 327.421 128.969 328.621 135.767 325.122 142.566 322.323 148.064 314.025 155.663 295.429 169.659 278.533 182.356 269.535 190.854 270.135 193.754 270.835 197.253 276.834 197.953 309.726 198.252 344.717 198.552 346.017 198.752 351.316 205.051 355.515 209.95 358.114 215.848 365.412 236.943 374.91 264.437 379.609 273.734 383.308 272.335 384.108 272.035 386.107 269.235 387.707 266.136Z" transform="matrix(1 0 0 -1.00163 201.375 730.596)"/><path d="M632.848 279.233C627.549 274.534 622.751 264.437 614.853 241.442 607.454 220.047 604.355 213.249 600.556 210.45 597.857 208.55 596.357 208.45 565.564 208.45 537.271 208.35 532.872 208.15 528.873 206.65 523.075 204.351 520.075 201.452 518.676 196.853 517.676 193.454 517.876 192.454 520.275 187.555 523.574 180.757 529.873 174.958 550.468 159.462 568.264 146.065 574.462 140.366 575.462 136.467 576.362 132.868 574.262 124.77 566.064 101.476 562.265 90.4783 558.566 78.3812 557.866 74.6821 555.767 63.0849 558.366 55.2867 565.364 52.9873 573.063 50.3879 582.26 54.6869 608.154 72.5826 630.249 87.9789 635.448 90.5783 640.246 88.9787 643.946 87.7789 654.143 80.7806 672.639 66.584 692.034 51.7876 701.932 47.3886 709.13 50.3879 714.629 52.5874 716.828 56.9863 716.828 65.4843 716.828 73.8823 715.628 79.081 708.33 102.475 704.731 113.873 702.531 123.17 702.132 127.769L701.532 135.068 706.431 139.766C709.23 142.366 719.128 149.764 728.625 156.263 738.023 162.761 748.42 170.459 751.72 173.558 762.217 183.256 764.217 191.454 757.518 197.653 751.72 203.051 742.922 204.951 722.927 204.951 704.131 205.051 684.536 206.45 681.137 208.15 677.038 210.05 673.039 219.247 666.34 241.942 656.742 274.734 651.744 282.932 641.146 282.932 637.647 282.932 636.147 282.232 632.848 279.233ZM645.145 269.235C648.544 263.737 651.044 256.838 657.342 235.643 663.541 214.848 665.84 209.05 669.439 204.151 674.838 197.053 684.636 194.953 711.629 194.953 736.723 194.953 749.32 193.054 750.62 189.155 751.42 186.655 738.623 175.758 721.327 163.861 700.832 149.864 695.733 145.365 692.734 139.367 689.135 131.868 690.434 124.67 701.132 89.9784 707.23 70.3831 708.33 60.8854 704.531 60.1856 701.132 59.4857 692.334 64.8844 672.539 79.7809 661.741 87.9789 650.344 95.877 647.445 97.2767 635.648 103.075 630.049 100.876 596.857 77.4814 583.66 68.2836 573.962 62.9849 569.963 62.9849 567.664 62.9849 567.564 63.1848 568.064 69.7833 568.564 76.3817 570.563 82.8801 580.461 110.973 585.759 126.07 587.259 137.367 584.66 142.266 582.06 147.365 573.362 155.263 555.767 168.56 537.871 182.056 528.573 190.954 529.073 193.854 529.773 197.353 536.271 198.052 565.964 197.953 583.56 197.953 596.557 198.352 599.756 199.052 610.254 201.252 614.353 207.55 624.75 237.643 628.549 248.54 632.648 259.538 633.748 262.137 636.047 267.136 640.446 272.935 641.946 272.935 642.446 272.935 643.846 271.235 645.145 269.235Z" transform="matrix(1 0 0 -1.00163 201.375 730.596)"/><path d="M892.086 279.433C886.787 274.934 882.488 265.936 874.79 243.442 867.492 222.247 863.293 213.249 859.494 210.45 856.794 208.55 855.195 208.45 824.502 208.45 799.708 208.35 791.51 208.05 788.811 207.05 776.214 202.152 774.014 193.554 782.312 182.656 786.111 177.657 793.11 171.759 814.505 155.563 822.403 149.664 830.201 143.166 831.9 141.166 834.7 137.767 834.9 136.967 834.4 132.168 834.2 129.269 831.201 118.971 827.701 109.174 815.704 74.6821 814.205 67.3838 817.604 59.7857 819.004 56.5864 820.503 54.8868 823.302 53.5871 830.301 50.2879 838.799 53.2872 856.295 65.1844 862.393 69.2834 871.991 75.8818 877.689 79.7809 883.388 83.7799 890.086 87.679 892.486 88.5788 896.785 90.2783 896.885 90.2783 902.583 87.2791 905.683 85.6795 916.78 77.9813 927.178 70.0832 953.071 50.3879 963.069 46.1889 970.467 51.5876 979.165 57.9861 978.165 68.5835 965.168 109.974 963.169 116.272 961.269 124.57 961.069 128.269L960.47 135.068 965.068 139.367C967.468 141.766 977.366 149.064 986.863 155.563 1013.56 173.958 1021.95 182.856 1020.36 191.454 1018.56 200.952 1007.16 204.951 981.665 204.951 962.969 205.051 943.474 206.55 940.174 208.15 935.875 210.15 933.576 215.348 925.778 240.942 915.48 274.834 910.482 282.932 900.184 282.932 896.985 282.932 895.285 282.232 892.086 279.433ZM904.783 268.336C907.482 264.037 908.882 260.138 918.78 227.945 921.079 220.547 924.278 211.949 925.878 208.85 931.677 197.153 935.476 196.053 971.767 194.953 1001.66 194.053 1009.76 192.754 1009.76 188.955 1009.76 185.955 1000.96 178.057 986.063 167.96 950.372 143.466 947.573 139.866 951.172 122.371 952.072 117.972 955.171 106.574 958.17 96.8768 964.269 76.9815 966.068 69.0834 965.568 63.9846 965.268 60.7854 965.068 60.4855 962.069 60.5855 957.87 60.7854 949.472 65.9842 933.476 78.3812 910.382 96.2769 903.983 99.976 896.385 99.976 890.286 99.976 880.689 94.8772 861.793 81.6804 843.498 68.7835 833.4 62.9849 829.301 62.9849L826.502 62.9849 827.002 69.3834C827.402 73.8823 830.201 83.6799 836.199 101.276 843.298 122.171 844.897 127.769 844.997 133.068 845.197 144.265 841.798 148.264 815.604 168.06 806.607 174.858 797.409 182.156 795.009 184.356 790.41 188.655 787.311 193.354 788.311 194.953 789.811 197.453 798.309 198.152 825.302 198.052 857.494 197.853 862.193 198.452 867.692 203.551 872.591 207.95 876.19 215.548 884.288 238.943 887.987 249.64 892.186 260.737 893.486 263.437 896.085 268.636 899.484 272.935 900.984 272.935 901.484 272.935 903.183 270.835 904.783 268.336Z" transform="matrix(1 0 0 -1.00163 201.375 730.596)"/><path d="M1151.62 279.933C1146.43 275.734 1141.03 264.437 1133.23 241.942 1125.63 219.847 1121.83 211.849 1117.93 209.85 1115.83 208.75 1108.33 208.45 1084.24 208.45 1049.75 208.45 1045.95 207.95 1040.15 202.451 1037.35 199.752 1036.75 198.552 1036.75 194.953 1036.75 185.555 1042.65 178.957 1068.94 159.162 1078.64 151.864 1088.14 144.165 1090.14 141.966 1095.44 136.067 1095.14 133.568 1085.34 104.875 1073.44 69.9832 1072.54 62.385 1079.74 55.4867 1082.34 52.9873 1083.64 52.5874 1088.04 52.5874 1095.24 52.5874 1104.64 57.3862 1123.23 70.4831 1141.13 83.0801 1148.62 87.7789 1152.92 89.0786 1158.52 90.6782 1162.92 88.0789 1192.61 65.1844 1214.01 48.6883 1225.51 45.5891 1232.5 54.387 1237.5 60.7854 1236.5 69.4833 1227.11 100.576 1223.51 112.673 1220.31 125.27 1220.01 128.669L1219.41 134.768 1224.01 139.167C1226.51 141.666 1232.8 146.465 1237.9 149.964 1265.7 168.959 1274.79 176.458 1277.99 183.256 1282.89 193.554 1276.29 201.352 1260.5 203.951 1257.1 204.451 1248.1 204.951 1240.7 204.951 1220.61 205.051 1202.51 206.45 1199.01 208.35 1194.81 210.45 1191.91 217.148 1184.72 241.542 1177.72 265.136 1174.12 273.534 1168.62 279.033 1165.22 282.432 1164.12 282.932 1159.92 282.932 1156.12 282.932 1154.42 282.332 1151.62 279.933ZM1163.42 269.035C1166.42 264.637 1168.92 257.738 1175.42 235.943 1178.42 225.746 1182.42 214.249 1184.32 210.25 1190.61 197.053 1193.51 196.053 1230.7 194.953 1268 193.754 1272.09 192.554 1266.7 184.856 1264.4 181.656 1252 172.259 1234.2 160.162 1227.61 155.663 1220.11 149.964 1217.51 147.465 1206.21 136.667 1206.41 131.668 1218.81 91.9779 1222.81 78.8811 1223.91 73.8823 1224.11 67.9837 1224.21 61.5852 1224.01 60.4855 1222.41 60.1856 1219.11 59.4857 1211.21 64.3846 1191.21 79.4809 1180.22 87.7789 1168.72 95.777 1165.82 97.2767 1154.52 102.875 1147.72 100.476 1120.63 81.4805 1103.04 69.0834 1091.84 62.685 1088.54 63.1848 1086.44 63.4848 1086.24 63.9846 1086.34 69.4833 1086.44 75.4819 1087.94 80.5807 1098.14 109.474 1100.64 116.672 1103.24 125.77 1103.84 129.669 1105.03 136.467 1105.03 136.867 1102.34 142.266 1099.34 148.564 1093.84 153.763 1076.74 166.46 1070.94 170.759 1062.95 176.958 1058.95 180.257 1051.45 186.355 1046.05 193.054 1047.15 194.853 1048.75 197.453 1056.95 198.152 1084.24 198.052 1116.43 197.853 1121.13 198.452 1126.63 203.551 1131.93 208.25 1134.73 213.949 1142.33 235.943 1150.02 258.438 1152.82 265.036 1156.32 269.735 1159.32 273.534 1160.42 273.434 1163.42 269.035Z" transform="matrix(1 0 0 -1.00163 201.375 730.596)"/></g></g></g></g></svg>